<svg xmlns="http://www.w3.org/2000/svg" viewBox="0 0 1358 612" preserveAspectRatio="xMidYMid" width="1358" height="612" xmlns:xlink="http://www.w3.org/1999/xlink" style="shape-rendering:auto;display:block;background-position-x:0%;background-position-y:0%;background-size:auto;background-origin:padding-box;background-clip:border-box;background:scroll rgb(163, 186, 223) none  repeat;width:1358px;height:612px;;animation:none"><g style="transform:matrix(1, 0, 0, -1, 0, 612);;animation:none"><defs><linearGradient y2="1" y1="0" x2="0" x1="0" id="lg-bk-freyurszfti"><stop offset="0" stop-opacity="0" stop-color="#dffff9"></stop>

  
<stop offset="0.8250000000000001" stop-opacity="1" stop-color="#dffff9"></stop></linearGradient>


<linearGradient y2="1" y1="0" x2="0" x1="0" id="lg-rurz9ansjwk"><stop offset="0" stop-color="rgba(95, 202, 255, 0.394)"></stop>

  
<stop offset="0.37" stop-color="#0075fc"></stop>

  
<stop offset="1" stop-color="#003067"></stop></linearGradient></defs>


<rect fill="url(#lg-bk-freyurszfti)" height="612" width="1358" y="0" x="0" style="fill:url('#lg-bk-freyurszfti');;animation:none"></rect>
<g transform="matrix(1,0,0,1,0,0)" style="transform:matrix(1, 0, 0, 1, 0, 0);;animation:none"><path opacity="0.4" fill="url(#lg-rurz9ansjwk)" d="M0 403.92
C679 403.92 679 464.2632 1358 464.2632
C2037 464.2632 2037 403.92 2716 403.92
C3395 403.92 3395 464.2632 4074 464.2632
C4753 464.2632 4753 403.92 5432 403.92
L5432 612 L0 612 Z" transform="matrix(1,0,0,1,-2716,0)" style="fill:url('#lg-rurz9ansjwk');transform:matrix(1, 0, 0, 1, -2716, 0);opacity:0.4;;animation:none"></path></g>
<g transform="matrix(1,0,0,1,0,7.311387062072754)" style="transform:matrix(1, 0, 0, 1, 0, 7.31139);;animation:none"><path opacity="0.4" fill="url(#lg-rurz9ansjwk)" d="M0 403.92
C679 403.92 679 464.2632 1358 464.2632
C2037 464.2632 2037 403.92 2716 403.92
C3395 403.92 3395 464.2632 4074 464.2632
C4753 464.2632 4753 403.92 5432 403.92
L5432 612 L0 612 Z" transform="matrix(1,0,0,1,-2589.25341796875,0)" style="fill:url('#lg-rurz9ansjwk');transform:matrix(1, 0, 0, 1, -2589.25, 0);opacity:0.4;;animation:none"></path></g>
<g transform="matrix(1,0,0,1,0,7.3113884925842285)" style="transform:matrix(1, 0, 0, 1, 0, 7.31139);;animation:none"><path opacity="0.4" fill="url(#lg-rurz9ansjwk)" d="M0 403.92
C679 403.92 679 464.2632 1358 464.2632
C2037 464.2632 2037 403.92 2716 403.92
C3395 403.92 3395 464.2632 4074 464.2632
C4753 464.2632 4753 403.92 5432 403.92
L5432 612 L0 612 Z" transform="matrix(1,0,0,1,-2462.5068359375,0)" style="fill:url('#lg-rurz9ansjwk');transform:matrix(1, 0, 0, 1, -2462.51, 0);opacity:0.4;;animation:none"></path></g>
<g></g></g><!-- [ldio] generated by https://loading.io --></svg>